<mxfile host="app.diagrams.net" modified="2024-01-30T18:51:37.541Z" agent="Mozilla/5.0 (Macintosh; Intel Mac OS X 10_15_7) AppleWebKit/605.1.15 (KHTML, like Gecko) Version/17.3 Safari/605.1.15" etag="BZ59UXKsmEa-Kr4OnHjK" version="23.0.2" type="google">
  <diagram name="Page-1" id="sXt613YUKD1uRUZ4ef0Q">
    <mxGraphModel grid="1" page="1" gridSize="10" guides="1" tooltips="1" connect="1" arrows="1" fold="1" pageScale="1" pageWidth="850" pageHeight="1100" math="0" shadow="0">
      <root>
        <mxCell id="0" />
        <mxCell id="1" parent="0" />
        <mxCell id="TJ0xfPZVYOcRARA6PoL8-1" value="condo management company&amp;nbsp;" style="shape=umlActor;verticalLabelPosition=bottom;verticalAlign=top;html=1;outlineConnect=0;" vertex="1" parent="1">
          <mxGeometry x="120" y="170" width="30" height="60" as="geometry" />
        </mxCell>
        <mxCell id="TJ0xfPZVYOcRARA6PoL8-2" value="condo owner" style="shape=umlActor;verticalLabelPosition=bottom;verticalAlign=top;html=1;outlineConnect=0;" vertex="1" parent="1">
          <mxGeometry x="120" y="340" width="30" height="60" as="geometry" />
        </mxCell>
        <mxCell id="TJ0xfPZVYOcRARA6PoL8-3" value="system administrator" style="shape=umlActor;verticalLabelPosition=bottom;verticalAlign=top;html=1;outlineConnect=0;" vertex="1" parent="1">
          <mxGeometry x="700" y="530" width="30" height="60" as="geometry" />
        </mxCell>
        <mxCell id="TJ0xfPZVYOcRARA6PoL8-4" value="" style="rounded=0;whiteSpace=wrap;html=1;" vertex="1" parent="1">
          <mxGeometry x="335" y="120" width="190" height="630" as="geometry" />
        </mxCell>
        <mxCell id="TJ0xfPZVYOcRARA6PoL8-5" value="setup common facilities" style="ellipse;whiteSpace=wrap;html=1;" vertex="1" parent="1">
          <mxGeometry x="370" y="190" width="120" height="80" as="geometry" />
        </mxCell>
        <mxCell id="TJ0xfPZVYOcRARA6PoL8-6" value="" style="endArrow=classic;html=1;rounded=0;exitX=0.5;exitY=0.5;exitDx=0;exitDy=0;exitPerimeter=0;entryX=0;entryY=0.5;entryDx=0;entryDy=0;" edge="1" parent="1" source="TJ0xfPZVYOcRARA6PoL8-1" target="TJ0xfPZVYOcRARA6PoL8-5">
          <mxGeometry width="50" height="50" relative="1" as="geometry">
            <mxPoint x="140" y="250" as="sourcePoint" />
            <mxPoint x="190" y="200" as="targetPoint" />
          </mxGeometry>
        </mxCell>
        <mxCell id="TJ0xfPZVYOcRARA6PoL8-7" value="cancel/modify reservations" style="ellipse;whiteSpace=wrap;html=1;" vertex="1" parent="1">
          <mxGeometry x="370" y="550" width="120" height="80" as="geometry" />
        </mxCell>
        <mxCell id="TJ0xfPZVYOcRARA6PoL8-8" value="" style="endArrow=classic;html=1;rounded=0;exitX=0.5;exitY=0.5;exitDx=0;exitDy=0;exitPerimeter=0;entryX=0;entryY=0.5;entryDx=0;entryDy=0;" edge="1" parent="1" source="TJ0xfPZVYOcRARA6PoL8-18" target="TJ0xfPZVYOcRARA6PoL8-7">
          <mxGeometry width="50" height="50" relative="1" as="geometry">
            <mxPoint x="70" y="590" as="sourcePoint" />
            <mxPoint x="120" y="540" as="targetPoint" />
          </mxGeometry>
        </mxCell>
        <mxCell id="TJ0xfPZVYOcRARA6PoL8-9" value="maker reservation" style="ellipse;whiteSpace=wrap;html=1;" vertex="1" parent="1">
          <mxGeometry x="370" y="280" width="120" height="80" as="geometry" />
        </mxCell>
        <mxCell id="TJ0xfPZVYOcRARA6PoL8-10" value="" style="endArrow=classic;html=1;rounded=0;entryX=0;entryY=0.5;entryDx=0;entryDy=0;exitX=0.5;exitY=0.5;exitDx=0;exitDy=0;exitPerimeter=0;" edge="1" parent="1" source="TJ0xfPZVYOcRARA6PoL8-2" target="TJ0xfPZVYOcRARA6PoL8-9">
          <mxGeometry width="50" height="50" relative="1" as="geometry">
            <mxPoint x="140" y="320" as="sourcePoint" />
            <mxPoint x="380" y="290" as="targetPoint" />
          </mxGeometry>
        </mxCell>
        <mxCell id="TJ0xfPZVYOcRARA6PoL8-11" value="view factility availability" style="ellipse;whiteSpace=wrap;html=1;" vertex="1" parent="1">
          <mxGeometry x="370" y="370" width="120" height="80" as="geometry" />
        </mxCell>
        <mxCell id="TJ0xfPZVYOcRARA6PoL8-12" value="" style="endArrow=classic;html=1;rounded=0;entryX=0;entryY=0.5;entryDx=0;entryDy=0;exitX=0.5;exitY=0.5;exitDx=0;exitDy=0;exitPerimeter=0;" edge="1" parent="1" source="TJ0xfPZVYOcRARA6PoL8-2" target="TJ0xfPZVYOcRARA6PoL8-11">
          <mxGeometry width="50" height="50" relative="1" as="geometry">
            <mxPoint x="150" y="330" as="sourcePoint" />
            <mxPoint x="380" y="380" as="targetPoint" />
          </mxGeometry>
        </mxCell>
        <mxCell id="TJ0xfPZVYOcRARA6PoL8-13" value="manage reservations" style="ellipse;whiteSpace=wrap;html=1;" vertex="1" parent="1">
          <mxGeometry x="370" y="460" width="120" height="80" as="geometry" />
        </mxCell>
        <mxCell id="TJ0xfPZVYOcRARA6PoL8-14" value="" style="endArrow=classic;html=1;rounded=0;exitX=0.5;exitY=0.5;exitDx=0;exitDy=0;exitPerimeter=0;entryX=1;entryY=0.5;entryDx=0;entryDy=0;" edge="1" parent="1" source="TJ0xfPZVYOcRARA6PoL8-3" target="TJ0xfPZVYOcRARA6PoL8-13">
          <mxGeometry width="50" height="50" relative="1" as="geometry">
            <mxPoint x="580" y="510" as="sourcePoint" />
            <mxPoint x="630" y="460" as="targetPoint" />
          </mxGeometry>
        </mxCell>
        <mxCell id="TJ0xfPZVYOcRARA6PoL8-15" value="oversee reservation system" style="ellipse;whiteSpace=wrap;html=1;" vertex="1" parent="1">
          <mxGeometry x="370" y="650" width="120" height="80" as="geometry" />
        </mxCell>
        <mxCell id="TJ0xfPZVYOcRARA6PoL8-16" value="" style="endArrow=classic;html=1;rounded=0;entryX=1;entryY=0.5;entryDx=0;entryDy=0;exitX=0.5;exitY=0.5;exitDx=0;exitDy=0;exitPerimeter=0;" edge="1" parent="1" source="TJ0xfPZVYOcRARA6PoL8-3" target="TJ0xfPZVYOcRARA6PoL8-15">
          <mxGeometry width="50" height="50" relative="1" as="geometry">
            <mxPoint x="140" y="650" as="sourcePoint" />
            <mxPoint x="380" y="600" as="targetPoint" />
          </mxGeometry>
        </mxCell>
        <mxCell id="TJ0xfPZVYOcRARA6PoL8-17" value="reservation operations" style="text;html=1;strokeColor=none;fillColor=none;align=center;verticalAlign=middle;whiteSpace=wrap;rounded=0;" vertex="1" parent="1">
          <mxGeometry x="350" y="120" width="160" height="30" as="geometry" />
        </mxCell>
        <mxCell id="TJ0xfPZVYOcRARA6PoL8-18" value="condo renter" style="shape=umlActor;verticalLabelPosition=bottom;verticalAlign=top;html=1;outlineConnect=0;" vertex="1" parent="1">
          <mxGeometry x="120" y="550" width="30" height="60" as="geometry" />
        </mxCell>
        <mxCell id="TJ0xfPZVYOcRARA6PoL8-20" value="" style="endArrow=classic;html=1;rounded=0;exitX=0.5;exitY=0.5;exitDx=0;exitDy=0;exitPerimeter=0;entryX=0;entryY=0.5;entryDx=0;entryDy=0;" edge="1" parent="1" source="TJ0xfPZVYOcRARA6PoL8-2" target="TJ0xfPZVYOcRARA6PoL8-7">
          <mxGeometry width="50" height="50" relative="1" as="geometry">
            <mxPoint x="145" y="550" as="sourcePoint" />
            <mxPoint x="380" y="600" as="targetPoint" />
          </mxGeometry>
        </mxCell>
        <mxCell id="TJ0xfPZVYOcRARA6PoL8-21" value="" style="endArrow=classic;html=1;rounded=0;exitX=0.5;exitY=0.5;exitDx=0;exitDy=0;exitPerimeter=0;entryX=0;entryY=0.5;entryDx=0;entryDy=0;" edge="1" parent="1" source="TJ0xfPZVYOcRARA6PoL8-18" target="TJ0xfPZVYOcRARA6PoL8-9">
          <mxGeometry width="50" height="50" relative="1" as="geometry">
            <mxPoint x="145" y="440" as="sourcePoint" />
            <mxPoint x="370" y="320" as="targetPoint" />
          </mxGeometry>
        </mxCell>
        <mxCell id="TJ0xfPZVYOcRARA6PoL8-22" value="" style="endArrow=classic;html=1;rounded=0;entryX=0;entryY=0.5;entryDx=0;entryDy=0;exitX=0.5;exitY=0.5;exitDx=0;exitDy=0;exitPerimeter=0;" edge="1" parent="1" source="TJ0xfPZVYOcRARA6PoL8-18" target="TJ0xfPZVYOcRARA6PoL8-11">
          <mxGeometry width="50" height="50" relative="1" as="geometry">
            <mxPoint x="145" y="440" as="sourcePoint" />
            <mxPoint x="380" y="420" as="targetPoint" />
          </mxGeometry>
        </mxCell>
        <mxCell id="TJ0xfPZVYOcRARA6PoL8-24" style="edgeStyle=orthogonalEdgeStyle;rounded=0;orthogonalLoop=1;jettySize=auto;html=1;exitX=0.5;exitY=1;exitDx=0;exitDy=0;" edge="1" parent="1" source="TJ0xfPZVYOcRARA6PoL8-4" target="TJ0xfPZVYOcRARA6PoL8-4">
          <mxGeometry relative="1" as="geometry" />
        </mxCell>
        <mxCell id="Gz_9t_dJxxLR79BPT3cL-1" value="&lt;p style=&quot;margin: 0cm 0cm 12pt; font-size: medium; font-family: &amp;quot;Times New Roman&amp;quot;, serif; text-align: start;&quot; class=&quot;MsoNormal&quot;&gt;&lt;b&gt;Scenario:&lt;/b&gt;&lt;/p&gt;&lt;ol style=&quot;margin-bottom: 0cm; text-align: start; margin-top: 0cm;&quot; type=&quot;1&quot; start=&quot;1&quot;&gt;&lt;li class=&quot;MsoNormal&quot;&gt;The&amp;nbsp;&lt;b&gt;Condo Management Company&lt;/b&gt;&amp;nbsp;configures the reservation system by setting up common facilities such as a sky lounge, spa, and fitness center.&lt;/li&gt;&lt;li class=&quot;MsoNormal&quot;&gt;&lt;b&gt;Condo Owners&lt;/b&gt;&amp;nbsp;and&amp;nbsp;&lt;b&gt;Rental Users&lt;/b&gt;&amp;nbsp;access the system to view the availability of these facilities.&lt;/li&gt;&lt;li class=&quot;MsoNormal&quot;&gt;They make reservations using a calendar-like interface, selecting the desired facility and time.&lt;/li&gt;&lt;li class=&quot;MsoNormal&quot;&gt;Once a reservation is made, the system updates to reflect the unavailability of that facility for the reserved time, ensuring a first-come-first-serve basis.&lt;/li&gt;&lt;li class=&quot;MsoNormal&quot;&gt;Users have the option to cancel or modify their reservations, which then updates the system&#39;s availability calendar.&lt;/li&gt;&lt;li class=&quot;MsoNormal&quot;&gt;The&amp;nbsp;&lt;b&gt;System Administrator&lt;/b&gt;&amp;nbsp;oversees the reservation system, ensuring it runs efficiently and handling any technical issues that arise.&lt;/li&gt;&lt;/ol&gt;" style="shape=note;whiteSpace=wrap;html=1;backgroundOutline=1;darkOpacity=0.05;" vertex="1" parent="1">
          <mxGeometry x="150" y="780" width="560" height="190" as="geometry" />
        </mxCell>
      </root>
    </mxGraphModel>
  </diagram>
</mxfile>
